{
  "accessors": [
    {
      "bufferView": 2,
      "componentType": 5126,
      "count": 25972,
      "max": [
        2.056185245513916,
        5.445344924926758,
        2.0359182357788086
      ],
      "min": [
        -2.4853734970092773,
        -6.094780445098877,
        -2.0994691848754883
      ],
      "type": "VEC3"
    },
    {
      "bufferView": 2,
      "byteOffset": 311664,
      "componentType": 5126,
      "count": 25972,
      "max": [
        0.999879002571106,
        0.9999866485595703,
        0.9999693036079407
      ],
      "min": [
        -0.9999831914901733,
        -0.9986400008201599,
        -0.999966561794281
      ],
      "type": "VEC3"
    },
    {
      "bufferView": 3,
      "componentType": 5126,
      "count": 25972,
      "max": [
        0.9999935030937195,
        0.9994761943817139,
        0.9999690651893616,
        1.0
      ],
      "min": [
        -0.999825119972229,
        -0.9999882578849792,
        -0.9999877214431763,
        1.0
      ],
      "type": "VEC4"
    },
    {
      "bufferView": 1,
      "componentType": 5126,
      "count": 25972,
      "max": [
        2.9563441276550293,
        50.66834259033203
      ],
      "min": [
        -0.9922799468040466,
        -1.4597158432006836
      ],
      "type": "VEC2"
    },
    {
      "bufferView": 1,
      "byteOffset": 207776,
      "componentType": 5126,
      "count": 25972,
      "max": [
        1.0,
        0.9996291399002075
      ],
      "min": [
        0.0,
        0.8503709435462952
      ],
      "type": "VEC2"
    },
    {
      "bufferView": 1,
      "byteOffset": 415552,
      "componentType": 5126,
      "count": 25972,
      "max": [
        2.9563441276550293,
        50.66834259033203
      ],
      "min": [
        -0.9922799468040466,
        -1.4597158432006836
      ],
      "type": "VEC2"
    },
    {
      "bufferView": 1,
      "byteOffset": 623328,
      "componentType": 5126,
      "count": 25972,
      "max": [
        2.9563441276550293,
        50.66834259033203
      ],
      "min": [
        -0.9922799468040466,
        -1.4597158432006836
      ],
      "type": "VEC2"
    },
    {
      "bufferView": 1,
      "byteOffset": 831104,
      "componentType": 5126,
      "count": 25972,
      "max": [
        2.9563441276550293,
        50.66834259033203
      ],
      "min": [
        -0.9922799468040466,
        -1.4597158432006836
      ],
      "type": "VEC2"
    },
    {
      "bufferView": 0,
      "componentType": 5125,
      "count": 121815,
      "type": "SCALAR"
    },
    {
      "bufferView": 2,
      "byteOffset": 623328,
      "componentType": 5126,
      "count": 26722,
      "max": [
        2.075484275817871,
        2.069434642791748,
        1.451373815536499
      ],
      "min": [
        -1.6948814392089844,
        -4.32746696472168,
        -2.217085123062134
      ],
      "type": "VEC3"
    },
    {
      "bufferView": 2,
      "byteOffset": 943992,
      "componentType": 5126,
      "count": 26722,
      "max": [
        0.9999669194221497,
        0.9999942779541016,
        0.9999822974205017
      ],
      "min": [
        -0.9998027086257935,
        -0.9999467730522156,
        -0.999962568283081
      ],
      "type": "VEC3"
    },
    {
      "bufferView": 3,
      "byteOffset": 415552,
      "componentType": 5126,
      "count": 26722,
      "max": [
        0.999979555606842,
        0.999995768070221,
        0.9999839663505554,
        1.0
      ],
      "min": [
        -0.9999316930770874,
        -0.999996542930603,
        -0.9999871253967285,
        1.0
      ],
      "type": "VEC4"
    },
    {
      "bufferView": 1,
      "byteOffset": 1038880,
      "componentType": 5126,
      "count": 26722,
      "max": [
        3.2693376541137695,
        29.10770606994629
      ],
      "min": [
        -1.4064626693725586,
        -1.4150420427322388
      ],
      "type": "VEC2"
    },
    {
      "bufferView": 1,
      "byteOffset": 1252656,
      "componentType": 5126,
      "count": 26722,
      "max": [
        1.0,
        0.9996291399002075
      ],
      "min": [
        0.0,
        0.8503709435462952
      ],
      "type": "VEC2"
    },
    {
      "bufferView": 1,
      "byteOffset": 1466432,
      "componentType": 5126,
      "count": 26722,
      "max": [
        3.2693376541137695,
        29.10770606994629
      ],
      "min": [
        -1.4064626693725586,
        -1.4150420427322388
      ],
      "type": "VEC2"
    },
    {
      "bufferView": 1,
      "byteOffset": 1680208,
      "componentType": 5126,
      "count": 26722,
      "max": [
        3.2693376541137695,
        29.10770606994629
      ],
      "min": [
        -1.4064626693725586,
        -1.4150420427322388
      ],
      "type": "VEC2"
    },
    {
      "bufferView": 1,
      "byteOffset": 1893984,
      "componentType": 5126,
      "count": 26722,
      "max": [
        3.2693376541137695,
        29.10770606994629
      ],
      "min": [
        -1.4064626693725586,
        -1.4150420427322388
      ],
      "type": "VEC2"
    },
    {
      "bufferView": 0,
      "byteOffset": 487260,
      "componentType": 5125,
      "count": 125853,
      "type": "SCALAR"
    },
    {
      "bufferView": 2,
      "byteOffset": 1264656,
      "componentType": 5126,
      "count": 33778,
      "max": [
        3.429677963256836,
        3.9078073501586914,
        2.06402325630188
      ],
      "min": [
        -3.787290573120117,
        -3.9980521202087402,
        -2.150362730026245
      ],
      "type": "VEC3"
    },
    {
      "bufferView": 2,
      "byteOffset": 1669992,
      "componentType": 5126,
      "count": 33778,
      "max": [
        0.9999552965164185,
        0.9999688863754272,
        0.999980628490448
      ],
      "min": [
        -0.9999948143959045,
        -0.999979555606842,
        -0.9999708533287048
      ],
      "type": "VEC3"
    },
    {
      "bufferView": 3,
      "byteOffset": 843104,
      "componentType": 5126,
      "count": 33778,
      "max": [
        0.9999907612800598,
        0.9999722838401794,
        0.9999794363975525,
        1.0
      ],
      "min": [
        -0.999963641166687,
        -0.9999796152114868,
        -0.9999954700469971,
        -1.0
      ],
      "type": "VEC4"
    },
    {
      "bufferView": 1,
      "byteOffset": 2107760,
      "componentType": 5126,
      "count": 33778,
      "max": [
        2.9238500595092773,
        40.17021942138672
      ],
      "min": [
        -0.9910507202148438,
        -1.111283779144287
      ],
      "type": "VEC2"
    },
    {
      "bufferView": 1,
      "byteOffset": 2377984,
      "componentType": 5126,
      "count": 33778,
      "max": [
        1.0,
        0.9996291399002075
      ],
      "min": [
        0.0,
        0.8503709435462952
      ],
      "type": "VEC2"
    },
    {
      "bufferView": 1,
      "byteOffset": 2648208,
      "componentType": 5126,
      "count": 33778,
      "max": [
        2.9238500595092773,
        40.17021942138672
      ],
      "min": [
        -0.9910507202148438,
        -1.111283779144287
      ],
      "type": "VEC2"
    },
    {
      "bufferView": 1,
      "byteOffset": 2918432,
      "componentType": 5126,
      "count": 33778,
      "max": [
        2.9238500595092773,
        40.17021942138672
      ],
      "min": [
        -0.9910507202148438,
        -1.111283779144287
      ],
      "type": "VEC2"
    },
    {
      "bufferView": 1,
      "byteOffset": 3188656,
      "componentType": 5126,
      "count": 33778,
      "max": [
        2.9238500595092773,
        40.17021942138672
      ],
      "min": [
        -0.9910507202148438,
        -1.111283779144287
      ],
      "type": "VEC2"
    },
    {
      "bufferView": 0,
      "byteOffset": 990672,
      "componentType": 5125,
      "count": 154665,
      "type": "SCALAR"
    },
    {
      "bufferView": 2,
      "byteOffset": 2075328,
      "componentType": 5126,
      "count": 62246,
      "max": [
        1.643915057182312,
        3.6137890815734863,
        1.3650026321411133
      ],
      "min": [
        -2.210237503051758,
        -5.098686218261719,
        -2.0219078063964844
      ],
      "type": "VEC3"
    },
    {
      "bufferView": 2,
      "byteOffset": 2822280,
      "componentType": 5126,
      "count": 62246,
      "max": [
        0.9999750256538391,
        0.9999167919158936,
        0.9999882578849792
      ],
      "min": [
        -0.9999813437461853,
        -0.999859631061554,
        -0.9998988509178162
      ],
      "type": "VEC3"
    },
    {
      "bufferView": 3,
      "byteOffset": 1383552,
      "componentType": 5126,
      "count": 62246,
      "max": [
        0.9999802112579346,
        0.9999415874481201,
        0.9999064207077026,
        1.0
      ],
      "min": [
        -0.9999306797981262,
        -0.9999480247497559,
        -0.9999768137931824,
        1.0
      ],
      "type": "VEC4"
    },
    {
      "bufferView": 1,
      "byteOffset": 3458880,
      "componentType": 5126,
      "count": 62246,
      "max": [
        2.934093952178955,
        41.91795349121094
      ],
      "min": [
        -0.985425591468811,
        -1.0543758869171143
      ],
      "type": "VEC2"
    },
    {
      "bufferView": 1,
      "byteOffset": 3956848,
      "componentType": 5126,
      "count": 62246,
      "max": [
        1.0,
        0.9996291399002075
      ],
      "min": [
        0.0,
        0.8503709435462952
      ],
      "type": "VEC2"
    },
    {
      "bufferView": 1,
      "byteOffset": 4454816,
      "componentType": 5126,
      "count": 62246,
      "max": [
        2.934093952178955,
        41.91795349121094
      ],
      "min": [
        -0.985425591468811,
        -1.0543758869171143
      ],
      "type": "VEC2"
    },
    {
      "bufferView": 1,
      "byteOffset": 4952784,
      "componentType": 5126,
      "count": 62246,
      "max": [
        2.934093952178955,
        41.91795349121094
      ],
      "min": [
        -0.985425591468811,
        -1.0543758869171143
      ],
      "type": "VEC2"
    },
    {
      "bufferView": 1,
      "byteOffset": 5450752,
      "componentType": 5126,
      "count": 62246,
      "max": [
        2.934093952178955,
        41.91795349121094
      ],
      "min": [
        -0.985425591468811,
        -1.0543758869171143
      ],
      "type": "VEC2"
    },
    {
      "bufferView": 0,
      "byteOffset": 1609332,
      "componentType": 5125,
      "count": 296439,
      "type": "SCALAR"
    }
  ],
  "asset": {
    "extras": {
      "author": "Quadra3D (https://sketchfab.com/Quadra3D)",
      "license": "CC-BY-4.0 (http://creativecommons.org/licenses/by/4.0/)",
      "source": "https://sketchfab.com/3d-models/dead-trees-demo-9bdd36641ef541adb51f0d01ddb07b2c",
      "title": "Dead Trees Demo"
    },
    "generator": "Sketchfab-13.31.0",
    "version": "2.0"
  },
  "bufferViews": [
    {
      "buffer": 0,
      "byteLength": 2795088,
      "name": "floatBufferViews",
      "target": 34963
    },
    {
      "buffer": 0,
      "byteLength": 5948720,
      "byteOffset": 2795088,
      "byteStride": 8,
      "name": "floatBufferViews",
      "target": 34962
    },
    {
      "buffer": 0,
      "byteLength": 3569232,
      "byteOffset": 8743808,
      "byteStride": 12,
      "name": "floatBufferViews",
      "target": 34962
    },
    {
      "buffer": 0,
      "byteLength": 2379488,
      "byteOffset": 12313040,
      "byteStride": 16,
      "name": "floatBufferViews",
      "target": 34962
    }
  ],
  "buffers": [
    {
      "byteLength": 14692528,
      "uri": "scene.bin"
    }
  ],
  "images": [
    {
      "uri": "textures/DT_Material_1_baseColor.png"
    },
    {
      "uri": "textures/DT_Material_1_metallicRoughness.png"
    },
    {
      "uri": "textures/DT_Material_1_normal.png"
    }
  ],
  "materials": [
    {
      "doubleSided": true,
      "name": "DT_Material_1",
      "normalTexture": {
        "index": 2
      },
      "pbrMetallicRoughness": {
        "baseColorTexture": {
          "index": 0
        },
        "metallicFactor": 0.0,
        "metallicRoughnessTexture": {
          "index": 1
        }
      }
    }
  ],
  "meshes": [
    {
      "name": "Object_0",
      "primitives": [
        {
          "attributes": {
            "NORMAL": 1,
            "POSITION": 0,
            "TANGENT": 2,
            "TEXCOORD_0": 3,
            "TEXCOORD_1": 4,
            "TEXCOORD_2": 5,
            "TEXCOORD_3": 6,
            "TEXCOORD_4": 7
          },
          "indices": 8,
          "material": 0,
          "mode": 4
        }
      ]
    },
    {
      "name": "Object_1",
      "primitives": [
        {
          "attributes": {
            "NORMAL": 10,
            "POSITION": 9,
            "TANGENT": 11,
            "TEXCOORD_0": 12,
            "TEXCOORD_1": 13,
            "TEXCOORD_2": 14,
            "TEXCOORD_3": 15,
            "TEXCOORD_4": 16
          },
          "indices": 17,
          "material": 0,
          "mode": 4
        }
      ]
    },
    {
      "name": "Object_2",
      "primitives": [
        {
          "attributes": {
            "NORMAL": 19,
            "POSITION": 18,
            "TANGENT": 20,
            "TEXCOORD_0": 21,
            "TEXCOORD_1": 22,
            "TEXCOORD_2": 23,
            "TEXCOORD_3": 24,
            "TEXCOORD_4": 25
          },
          "indices": 26,
          "material": 0,
          "mode": 4
        }
      ]
    },
    {
      "name": "Object_3",
      "primitives": [
        {
          "attributes": {
            "NORMAL": 28,
            "POSITION": 27,
            "TANGENT": 29,
            "TEXCOORD_0": 30,
            "TEXCOORD_1": 31,
            "TEXCOORD_2": 32,
            "TEXCOORD_3": 33,
            "TEXCOORD_4": 34
          },
          "indices": 35,
          "material": 0,
          "mode": 4
        }
      ]
    }
  ],
  "nodes": [
    {
      "children": [
        1
      ],
      "matrix": [
        1.0,
        0.0,
        0.0,
        0.0,
        0.0,
        2.220446049250313e-16,
        -1.0,
        0.0,
        0.0,
        1.0,
        2.220446049250313e-16,
        0.0,
        0.0,
        0.0,
        0.0,
        1.0
      ],
      "name": "Sketchfab_model"
    },
    {
      "children": [
        2
      ],
      "name": "root"
    },
    {
      "children": [
        3,
        5,
        7,
        9
      ],
      "matrix": [
        1.0,
        0.0,
        0.0,
        0.0,
        0.0,
        2.220446049250313e-16,
        1.0,
        0.0,
        0.0,
        -1.0,
        2.220446049250313e-16,
        0.0,
        0.0,
        0.0,
        0.0,
        1.0
      ],
      "name": "GLTF_SceneRootNode"
    },
    {
      "children": [
        4
      ],
      "matrix": [
        1.0,
        0.0,
        0.0,
        0.0,
        0.0,
        1.0,
        0.0,
        0.0,
        0.0,
        0.0,
        1.0,
        0.0,
        6.193273067474365,
        4.037298202514648,
        0.436758428812027,
        1.0
      ],
      "name": "DT_Demo.001_1"
    },
    {
      "mesh": 0,
      "name": "Object_4"
    },
    {
      "children": [
        6
      ],
      "matrix": [
        1.0,
        0.0,
        0.0,
        0.0,
        0.0,
        1.0,
        0.0,
        0.0,
        0.0,
        0.0,
        1.0,
        0.0,
        -9.331258773803711,
        2.563241481781006,
        -0.18957872688770294,
        1.0
      ],
      "name": "DT_Demo.002_2"
    },
    {
      "mesh": 1,
      "name": "Object_6"
    },
    {
      "children": [
        8
      ],
      "matrix": [
        1.0,
        0.0,
        0.0,
        0.0,
        0.0,
        1.0,
        0.0,
        0.0,
        0.0,
        0.0,
        1.0,
        0.0,
        -4.10329532623291,
        1.8100367784500122,
        0.22199474275112152,
        1.0
      ],
      "name": "DT_Demo.003_3"
    },
    {
      "mesh": 2,
      "name": "Object_8"
    },
    {
      "children": [
        10
      ],
      "matrix": [
        1.0,
        0.0,
        0.0,
        0.0,
        0.0,
        1.0,
        0.0,
        0.0,
        0.0,
        0.0,
        1.0,
        0.0,
        1.0479518175125122,
        3.154951572418213,
        0.197206050157547,
        1.0
      ],
      "name": "DT_Demo.004_4"
    },
    {
      "mesh": 3,
      "name": "Object_10"
    }
  ],
  "samplers": [
    {
      "magFilter": 9729,
      "minFilter": 9987,
      "wrapS": 10497,
      "wrapT": 10497
    }
  ],
  "scene": 0,
  "scenes": [
    {
      "name": "Sketchfab_Scene",
      "nodes": [
        0
      ]
    }
  ],
  "textures": [
    {
      "sampler": 0,
      "source": 0
    },
    {
      "sampler": 0,
      "source": 1
    },
    {
      "sampler": 0,
      "source": 2
    }
  ]
}
